<?xml version="1.0" standalone="no"?>
<!DOCTYPE svg PUBLIC "-//W3C//DTD SVG 20010904//EN"
 "http://www.w3.org/TR/2001/REC-SVG-20010904/DTD/svg10.dtd">
<svg version="1.0" xmlns="http://www.w3.org/2000/svg"
 width="182.000000pt" height="25.000000pt" viewBox="0 0 182.000000 25.000000"
 preserveAspectRatio="xMidYMid meet">

<g transform="translate(0.000000,25.000000) scale(0.100000,-0.100000)"
fill="#000000" stroke="none">
<path d="M31 219 c-25 -15 -31 -23 -22 -32 8 -8 14 -8 23 1 23 23 28 11 28
-73 l0 -85 -24 15 c-16 11 -26 12 -31 6 -3 -6 9 -20 27 -31 32 -20 48 -20 823
-19 435 1 815 4 845 7 45 6 57 12 69 33 13 24 13 29 -2 53 -13 20 -26 26 -52
26 -32 0 -35 2 -35 30 0 17 -4 30 -10 30 -5 0 -10 14 -10 30 l0 30 -797 0
c-788 0 -798 0 -832 -21z m1687 -151 c-7 -19 -38 -22 -38 -4 0 10 9 16 21 16
12 0 19 -5 17 -12z"/>
</g>
</svg>
